<svg width="700" height="700" viewBox="0 0 700 700" fill="none" xmlns="http://www.w3.org/2000/svg">
<path d="M350.015 63C367.026 63 383.208 66.7083 394.411 73.177L567.614 173.177C591.265 186.833 612.015 222.77 612.015 250.083V450.083C612.015 477.396 591.265 513.333 567.614 526.989L394.411 626.989C383.208 633.458 367.026 637.166 350.01 637.166C332.995 637.166 316.812 633.458 305.609 626.989L132.401 526.989C108.75 513.333 88 477.396 88 450.083V250.083C88 222.77 108.75 186.833 132.401 173.177L305.609 73.177C316.812 66.7083 332.995 63 350.015 63Z" fill="#6644CC"/>
<mask id="mask0_74_348" style="mask-type:alpha" maskUnits="userSpaceOnUse" x="75" y="49" width="551" height="602">
<path d="M299.281 61.1882L126.073 161.188C98.3909 177.172 75.0054 217.677 75.0054 249.641V449.641C75.0054 481.605 98.3909 522.115 126.073 538.094L299.281 638.094C312.448 645.698 331.063 650.058 350.349 650.058C369.636 650.058 388.25 645.698 401.417 638.094L574.62 538.094C602.302 522.115 625.688 481.605 625.688 449.641V249.641C625.688 217.677 602.302 177.172 574.62 161.188L401.417 61.1882C388.25 53.584 369.636 49.2246 350.349 49.2246C331.063 49.2246 312.448 53.584 299.281 61.1882Z" fill="white" fill-opacity="0.2"/>
</mask>
<g mask="url(#mask0_74_348)">
<path d="M-860 609.902L-302.995 -354.832L253.974 609.902" fill="#808184"/>
<path d="M21.0264 113.745L578.037 -851L1135 113.745" fill="#808184"/>
<path d="M-303.015 364.599L253.995 -600.135L810.959 364.599" fill="#221F1F"/>
<path d="M481.938 715.901L1038.94 -248.838L1595.91 715.901" fill="#59595C"/>
<path d="M-186.588 1226.14L370.422 261.406L927.386 1226.14" fill="#59595C"/>
<path d="M-327.453 139.875L-115.927 -226.484L95.5834 139.875" fill="#A7A8AB"/>
<path d="M-150.406 958.632L61.1148 592.262L272.625 958.632" fill="#A7A8AB"/>
<path d="M291.24 317.783L502.761 -48.582L714.271 317.783" fill="#59595C"/>
<path d="M131.433 689.422L342.959 323.062L554.469 689.422" fill="#221F1F"/>
<path d="M136.511 531.793L348.031 165.428L559.537 531.793" fill="#59595C"/>
<path d="M544.172 622.532L755.698 256.172L967.209 622.532" fill="#808184"/>
<path d="M-81.8904 751.99L22.6669 570.875L127.229 751.99" fill="#59595C"/>
<path d="M502.594 430.552L607.157 249.443L711.714 430.552" fill="#221F1F"/>
<path d="M166.568 346.224L218.854 255.672L271.13 346.224" fill="#808184"/>
<path d="M114.505 74.7765L219.073 -106.338L323.63 74.7765" fill="#808184"/>
<path d="M241.74 544.626L346.302 363.512L450.86 544.626" fill="#D1D2D3"/>
<path d="M523.203 454.064L575.485 363.512L627.766 454.064" fill="#A7A8AB"/>
<path d="M523.203 141.376L575.485 50.8242L627.766 141.376" fill="#A7A8AB"/>
<path d="M74.4795 219.147L179.047 38.0273L283.604 219.147" fill="#A7A8AB"/>
<path d="M61.3594 411.5L101.214 342.48L141.058 411.5" fill="#59595C"/>
<path d="M589.11 277.933L628.959 208.912L668.808 277.933" fill="#A7A8AB"/>
<path d="M260.61 446.005L300.459 376.984L340.302 446.005" fill="#A7A8AB"/>
<path d="M549.261 602.949L589.115 533.928L628.959 602.949" fill="#59595C"/>
<path d="M234.953 314.026L274.808 245.006L314.651 314.026" fill="#59595C"/>
<path d="M286.776 129.355L306.703 94.8438L326.625 129.355" fill="#59595C"/>
<path d="M180.912 602.949L220.761 533.928L260.61 602.949" fill="#221F1F"/>
<path d="M428.906 243.426L468.755 174.4L508.599 243.426" fill="#D1D2D3"/>
<path d="M554.948 114.511L594.802 45.4902L634.651 114.511" fill="#808184"/>
</g>
<path d="M349.682 72.6667C334.365 72.6667 320 75.8906 310.276 81.5052L137.068 181.505C116.448 193.411 97.6667 225.943 97.6667 249.75V449.75C97.6667 473.562 116.448 506.089 137.068 517.995L310.276 617.995C320 623.615 334.365 626.833 349.677 626.833C364.99 626.833 379.349 623.615 389.078 617.995L562.281 517.995C582.901 506.089 601.682 473.562 601.682 449.75V249.75C601.682 225.943 582.901 193.411 562.281 181.505L389.078 81.5052C379.349 75.8906 364.99 72.6667 349.682 72.6667ZM349.677 673.5C326.078 673.5 303.797 668.141 286.943 658.411L113.735 558.411C79.1459 538.438 51 489.698 51 449.75V249.75C51 209.807 79.1459 161.062 113.735 141.089L286.943 41.0885C303.797 31.3646 326.073 26 349.677 26C373.276 26 395.557 31.3594 412.412 41.0885L585.615 141.089C620.208 161.062 648.349 209.807 648.349 249.75V449.75C648.349 489.698 620.208 538.438 585.615 558.411L412.412 658.411C395.557 668.141 373.276 673.5 349.677 673.5Z" fill="white"/>
<path d="M385.184 488.716C370.738 457.401 371.956 447.261 365.484 415.451C362.916 402.829 371.192 355.519 380.529 356.003C383.284 355.805 392.419 360.261 409.654 371.546C426.071 375.126 445.336 380.981 464.017 384.169C438.529 372.129 422.958 366.518 406.52 346.424C421.966 336.45 430.813 331.452 446.964 323.687C472.263 321.462 487.014 329.66 517.063 341.227C504.31 335.789 497.973 331.581 488.293 321.856C501.979 311.225 510.512 306.157 526.62 298.016C510.133 302.818 500.881 305.502 477.7 303.924L456.951 302.849L380.799 325.721L397.947 277.574C422.399 271.481 436.366 268.423 463.172 265.558C453.037 262.183 433.117 264.23 421.548 260.421C426.772 257.497 427.74 256.457 430.092 254.407C421.939 257.223 415.068 258.142 401.317 259.372L426.415 216.471L441.218 199.359C455.041 194.754 462.9 193.059 477.128 191.783C465.146 188.842 458.312 187.693 445.423 188.65C450.599 184.033 452.229 181.117 455.026 176.111L455.228 175.749C447.125 182.191 441.735 184.61 431.418 187.924L388.236 243.795C379.701 233.433 375.104 226.868 368.171 209.976C374.809 210.371 379.297 213.447 387.161 218.41C367.623 203.751 349.144 192.043 337.563 171.637C349.584 199.28 365.313 228.299 367.895 264.593C356.574 260.111 350.445 247.187 350.137 236.357C345.848 257.917 343.825 256.116 364.167 274.333L349.773 313.319L326.748 258.487C323.282 234.003 317.619 207.032 320.284 179.185C317.667 196.827 314 206.789 308.239 224.749C281.218 204.039 266.755 193.813 236.412 166.395C268.076 200.252 275.169 214.097 296.59 243.018L310.178 270.542L316.348 334.486C296.388 318.417 278.717 313.017 277.061 286.758C276.011 288.932 268.361 295.841 265.876 289.158C253.101 272.267 244.879 262.843 234.848 220.396C235.029 251.119 236.46 260.566 240.932 276.939C216.325 274.718 210.03 276.033 194.871 277.035C220.021 283.009 233.738 288.23 255.333 311.458C262.416 318.943 266.064 323.499 270.763 333.614C256.176 345.775 246.616 351.946 200.52 349.343C212.757 367.592 239.038 364.881 259.917 361.163C269.67 359.426 278.281 357.209 288.703 353.913C308.095 362.983 313.353 347.984 322.202 369.608C323.923 411.36 312.968 452.113 313.249 494.152L314.413 497.192L296.58 499.08C296.097 499.135 295.607 499.168 295.124 499.168H260.274C248.829 499.168 241.071 513.529 249 520.029C250.118 520.951 251.476 521.588 252.979 521.917L304.985 533.248C305.759 533.412 306.56 533.5 307.38 533.5H391.871C393.354 533.5 394.895 533.226 396.391 532.688L454.363 511.882C465.647 507.831 468.03 493.184 457.894 490.143L436.23 483.643C434.793 483.215 433.224 483.094 431.612 483.281L385.184 488.716Z" fill="white"/>
</svg>
