<svg width="598" height="648" viewBox="0 0 598 648" fill="none" xmlns="http://www.w3.org/2000/svg">
<path d="M299.015 37C316.026 37 332.208 40.7083 343.411 47.177L516.614 147.177C540.265 160.833 561.015 196.77 561.015 224.083V424.083C561.015 451.396 540.265 487.333 516.614 500.989L343.411 600.989C332.208 607.458 316.026 611.166 299.01 611.166C281.995 611.166 265.812 607.458 254.609 600.989L81.4012 500.989C57.7502 487.333 37 451.396 37 424.083V224.083C37 196.77 57.7502 160.833 81.4012 147.177L254.609 47.177C265.812 40.7083 281.995 37 299.015 37Z" fill="#6644CC"/>
<mask id="mask0_300_409" style="mask-type:alpha" maskUnits="userSpaceOnUse" x="24" y="23" width="551" height="602">
<path d="M248.281 35.188L75.073 135.188C47.3909 151.172 24.0054 191.677 24.0054 223.641V423.641C24.0054 455.605 47.3909 496.115 75.073 512.094L248.281 612.094C261.448 619.698 280.063 624.058 299.349 624.058C318.636 624.058 337.25 619.698 350.417 612.094L523.62 512.094C551.302 496.115 574.688 455.605 574.688 423.641V223.641C574.688 191.677 551.302 151.172 523.62 135.188L350.417 35.188C337.25 27.5838 318.636 23.2244 299.349 23.2244C280.063 23.2244 261.448 27.5838 248.281 35.188Z" fill="white" fill-opacity="0.2"/>
</mask>
<g mask="url(#mask0_300_409)">
<path d="M-911 583.901L-353.995 -380.833L202.974 583.901" fill="#808184"/>
<path d="M-29.9736 87.745L527.037 -877L1084 87.745" fill="#808184"/>
<path d="M-354.015 338.599L202.995 -626.135L759.959 338.599" fill="#221F1F"/>
<path d="M430.938 689.901L987.944 -274.838L1544.91 689.901" fill="#59595C"/>
<path d="M-237.588 1200.14L319.422 235.407L876.386 1200.14" fill="#59595C"/>
<path d="M-378.453 113.875L-166.927 -252.484L44.5834 113.875" fill="#A7A8AB"/>
<path d="M-201.406 932.631L10.1148 566.261L221.625 932.631" fill="#A7A8AB"/>
<path d="M240.24 291.782L451.761 -74.583L663.271 291.782" fill="#59595C"/>
<path d="M80.4331 663.422L291.959 297.063L503.469 663.422" fill="#221F1F"/>
<path d="M85.511 505.792L297.031 139.427L508.537 505.792" fill="#59595C"/>
<path d="M493.172 596.532L704.698 230.172L916.209 596.532" fill="#808184"/>
<path d="M-132.89 725.99L-28.3331 544.875L76.229 725.99" fill="#59595C"/>
<path d="M451.594 404.552L556.157 223.443L660.714 404.552" fill="#221F1F"/>
<path d="M115.568 320.224L167.854 229.672L220.13 320.224" fill="#808184"/>
<path d="M63.5049 48.7765L168.073 -132.338L272.63 48.7765" fill="#808184"/>
<path d="M190.74 518.625L295.302 337.511L399.86 518.625" fill="#D1D2D3"/>
<path d="M472.203 428.063L524.485 337.511L576.766 428.063" fill="#A7A8AB"/>
<path d="M472.203 115.375L524.485 24.8234L576.766 115.375" fill="#A7A8AB"/>
<path d="M23.4795 193.146L128.047 12.0265L232.604 193.146" fill="#A7A8AB"/>
<path d="M10.3594 385.5L50.2138 316.48L90.0578 385.5" fill="#59595C"/>
<path d="M538.11 251.933L577.959 182.912L617.808 251.933" fill="#A7A8AB"/>
<path d="M209.61 420.006L249.459 350.985L289.302 420.006" fill="#A7A8AB"/>
<path d="M498.261 576.948L538.115 507.927L577.959 576.948" fill="#59595C"/>
<path d="M183.953 288.026L223.808 219.006L263.651 288.026" fill="#59595C"/>
<path d="M235.776 103.355L255.703 68.8442L275.625 103.355" fill="#59595C"/>
<path d="M129.912 576.948L169.761 507.927L209.61 576.948" fill="#221F1F"/>
<path d="M377.906 217.427L417.755 148.401L457.599 217.427" fill="#D1D2D3"/>
<path d="M503.948 88.511L543.802 19.49L583.651 88.511" fill="#808184"/>
</g>
<path d="M298.682 46.6667C283.365 46.6667 269 49.8906 259.276 55.5052L86.0679 155.505C65.4479 167.411 46.6667 199.943 46.6667 223.75V423.75C46.6667 447.562 65.4479 480.089 86.0679 491.995L259.276 591.995C269 597.615 283.365 600.833 298.677 600.833C313.99 600.833 328.349 597.615 338.078 591.995L511.281 491.995C531.901 480.089 550.682 447.562 550.682 423.75V223.75C550.682 199.943 531.901 167.411 511.281 155.505L338.078 55.5052C328.349 49.8906 313.99 46.6667 298.682 46.6667ZM298.677 647.5C275.078 647.5 252.797 642.141 235.943 632.411L62.7349 532.411C28.1459 512.438 0 463.698 0 423.75V223.75C0 183.807 28.1459 135.062 62.7349 115.089L235.943 15.0885C252.797 5.3646 275.073 0 298.677 0C322.276 0 344.557 5.3594 361.412 15.0885L534.615 115.089C569.208 135.062 597.349 183.807 597.349 223.75V423.75C597.349 463.698 569.208 512.438 534.615 532.411L361.412 632.411C344.557 642.141 322.276 647.5 298.677 647.5Z" fill="white"/>
<path d="M407.425 429.128H481M481 429.128L440.125 389.256M481 429.128L440.125 469M317.5 158L276.625 197.872H284.8M292.975 197.872C325.497 197.872 356.687 210.474 379.684 232.906C402.681 255.339 415.6 285.763 415.6 317.487C415.6 349.211 402.681 379.636 379.684 402.068C356.687 424.5 325.497 437.103 292.975 437.103H154M231.761 213.821C213.089 224.313 197.582 239.42 186.801 257.619C176.02 275.819 170.346 296.468 170.35 317.487C170.35 344.409 179.473 369.257 194.875 389.256M350.2 315.715V253.692L260.275 267.869V329.892M350.2 315.715V336.98C350.2 340.74 348.477 344.346 345.411 347.004C342.345 349.663 338.186 351.157 333.85 351.157H325.675C321.339 351.157 317.18 349.663 314.114 347.004C311.048 344.346 309.325 340.74 309.325 336.98V329.892C309.325 326.132 311.048 322.526 314.114 319.867C317.18 317.209 321.339 315.715 325.675 315.715L350.2 315.715ZM260.275 329.892V351.157C260.275 354.917 258.552 358.522 255.486 361.181C252.42 363.84 248.261 365.333 243.925 365.333H235.75C231.414 365.333 227.255 363.84 224.189 361.181C221.123 358.522 219.4 354.917 219.4 351.157V344.068C219.4 340.308 221.123 336.703 224.189 334.044C227.255 331.385 231.414 329.892 235.75 329.892L260.275 329.892Z" stroke="white" stroke-width="22" stroke-linecap="round" stroke-linejoin="round"/>
</svg>
